<svg xmlns="http://www.w3.org/2000/svg" viewBox="0 0 128 128"><defs><style>.a{fill:#f6f6f6;opacity:0}.fill-1F1F1F-2{fill:#1f1f1f}.fill-393939-2{fill:#393939}.fill-FF8C00-2{fill:#ff8c00}.fill-FFFFFF-2{fill:#fff}.fill-CCCCCC-2{fill:#ccc}</style></defs><title>VSMK_KeymapSublime_128x nobg</title><path class="a" d="M128 128H0V0h128z"/><path class="fill-1F1F1F-2" d="M102.572 37H25.429A6.59 6.59 0 0 0 19 43.741V84.26A6.59 6.59 0 0 0 25.429 91h77.143A6.59 6.59 0 0 0 109 84.26V43.741A6.59 6.59 0 0 0 102.572 37z"/><path class="fill-393939-2" d="M102.572 43c.151 0 .428.281.428.741V84.26c0 .459-.277.74-.428.74H25.429c-.151 0-.429-.281-.429-.74V43.741c0-.459.277-.741.429-.741h77.143m0-6H25.429A6.59 6.59 0 0 0 19 43.741V84.26A6.59 6.59 0 0 0 25.429 91h77.143A6.59 6.59 0 0 0 109 84.26V43.741A6.59 6.59 0 0 0 102.572 37z"/><path class="fill-FF8C00-2" d="M97 79H85v-6h12zM43 79H31v-6h12z"/><path class="fill-FFFFFF-2" d="M37 55h-6v-6h6zm60 6H85v6h12zM79 73H49v6h30z"/><path class="fill-CCCCCC-2" d="M67 67h-6v-6h6zm-24-6H31v6h12zm6-6h-6v-6h6zm30 12h-6v-6h6zM61 55h-6v-6h6zm12 0h-6v-6h6zm12 0h-6v-6h6zm12 0h-6v-6h6z"/><path class="fill-FF8C00-2" d="M49 61h6v6h-6z"/></svg>